<?xml version="1.0" encoding="UTF-8"?>
<svg version="1.1" xmlns="http://www.w3.org/2000/svg" width="500" height="500">
<path d="M0 0 C165 0 330 0 500 0 C500 165 500 330 500 500 C335 500 170 500 0 500 C0 335 0 170 0 0 Z " fill="#4F0C1A" transform="translate(0,0)"/>
<path d="M0 0 C3.12389398 1.37830609 5.22900456 3.62401532 7.58135986 6.02809143 C8.37227524 6.81834969 8.37227524 6.81834969 9.1791687 7.62457275 C10.91776981 9.36526152 12.64550761 11.11632993 14.37335205 12.86769104 C15.57767296 14.07760797 16.78265855 15.28686363 17.98828125 16.4954834 C21.15794128 19.67659164 24.31848867 22.86660632 27.47723389 26.05854797 C30.70278503 29.31480032 33.93685729 32.56256491 37.17022705 35.81105042 C43.51193784 42.18492495 49.84405586 48.5682393 56.17022705 54.95753479 C59.93197473 53.39303928 62.30974687 51.05964414 65.16656494 48.18824768 C65.6500087 47.70509598 66.13345245 47.22194427 66.63154602 46.72415161 C68.22344702 45.13086097 69.8081497 43.53060809 71.3928833 41.93019104 C72.50055385 40.81878736 73.60866901 39.70782665 74.71720886 38.59729004 C77.63195703 35.67491493 80.54065293 32.74658748 83.44812012 29.81697083 C86.4046162 26.84004955 89.36674501 23.86874512 92.32843018 20.89698792 C97.5361668 15.67011668 102.73894066 10.43834997 107.93818665 5.20303345 C109.67921874 3.45150367 111.42249232 1.70237035 113.17022705 -0.04246521 C117.97336024 1.36099113 120.57204915 4.20830786 123.73272705 7.89503479 C127.34571919 12.08580722 127.34571919 12.08580722 131.5100708 15.71144104 C132.05792236 16.12265198 132.60577393 16.53386292 133.17022705 16.95753479 C133.17022705 17.61753479 133.17022705 18.27753479 133.17022705 18.95753479 C133.83022705 18.95753479 134.49022705 18.95753479 135.17022705 18.95753479 C136.5803833 20.39112854 136.5803833 20.39112854 138.23272705 22.39503479 C143.14639009 28.16858886 148.3471052 33.79326062 154.29522705 38.52003479 C157.33888679 41.10052892 159.794284 43.87902869 162.3772583 46.90675354 C165.15347788 50.08216809 168.160563 53.00588836 171.17022705 55.95753479 C172.01585205 56.82378479 172.86147705 57.69003479 173.73272705 58.58253479 C176.1686878 61.03117566 176.1686878 61.03117566 179.04522705 63.27003479 C182.26886681 65.88872416 184.82967136 68.95854827 187.51397705 72.11378479 C189.52709405 74.35480183 191.81499316 76.0854258 194.17022705 77.95753479 C195.64766207 79.63875395 197.06126538 81.36554885 198.48272705 83.09425354 C200.91012155 85.77450163 203.68809249 87.96196304 206.5335083 90.18409729 C208.63453725 92.46062986 208.93864641 93.88410517 209.17022705 96.95753479 C207.92378235 98.92550659 207.92378235 98.92550659 205.97906494 100.82984924 C204.89783104 101.91040337 204.89783104 101.91040337 203.79475403 103.01278687 C203.00213669 103.77443649 202.20951935 104.53608612 201.3928833 105.32081604 C200.19217445 106.50879036 200.19217445 106.50879036 198.96720886 107.72076416 C196.40275811 110.25158042 193.81825395 112.76077146 191.23272705 115.27003479 C189.49243509 116.98024084 187.75348462 118.69181314 186.01593018 120.40480042 C181.7494792 124.6050332 177.46636858 128.78768719 173.17022705 132.95753479 C169.67934824 131.31315593 167.43981019 129.44765964 164.7288208 126.67628479 C163.89802002 125.83452698 163.06721924 124.99276917 162.21124268 124.12550354 C161.35208252 123.24507385 160.49292236 122.36464417 159.60772705 121.45753479 C157.90035259 119.71573231 156.19081181 117.97604995 154.4788208 116.23878479 C153.72399414 115.46599182 152.96916748 114.69319885 152.19146729 113.89698792 C150.12508749 111.80045345 150.12508749 111.80045345 147.17022705 109.95753479 C147.17022705 109.29753479 147.17022705 108.63753479 147.17022705 107.95753479 C146.51022705 107.95753479 145.85022705 107.95753479 145.17022705 107.95753479 C145.17022705 107.29753479 145.17022705 106.63753479 145.17022705 105.95753479 C144.5875708 105.69972229 144.00491455 105.44190979 143.40460205 105.17628479 C140.98993675 103.85919462 139.35282528 102.40665095 137.42022705 100.45753479 C136.8066333 99.84909729 136.19303955 99.24065979 135.56085205 98.61378479 C134.17022705 96.95753479 134.17022705 96.95753479 134.17022705 94.95753479 C133.58595947 94.69923889 133.00169189 94.44094299 132.39971924 94.17481995 C129.99306083 92.86080343 128.41703368 91.43273464 126.49835205 89.48097229 C125.83448486 88.81065979 125.17061768 88.14034729 124.4866333 87.44972229 C123.46376221 86.40171448 123.46376221 86.40171448 122.42022705 85.33253479 C121.37415283 84.27292542 121.37415283 84.27292542 120.3069458 83.19190979 C118.59010217 81.45154776 116.87810873 79.70668498 115.17022705 77.95753479 C111.80050658 79.49678982 110.35447685 80.97901234 108.17022705 83.95753479 C107.51022705 83.95753479 106.85022705 83.95753479 106.17022705 83.95753479 C106.17022705 84.61753479 106.17022705 85.27753479 106.17022705 85.95753479 C104.63116455 87.43800354 104.63116455 87.43800354 102.54522705 89.14503479 C99.1633716 92.00798121 96.34161285 94.99312779 93.5335083 98.40675354 C91.64671416 100.55304945 89.39869391 102.1747613 87.17022705 103.95753479 C86.21387776 105.04541636 85.2779267 106.15140934 84.35772705 107.27003479 C81.48281386 110.74388823 78.26739181 113.59665669 74.8069458 116.47706604 C73.0583382 117.87854194 73.0583382 117.87854194 72.17022705 119.95753479 C71.51022705 119.95753479 70.85022705 119.95753479 70.17022705 119.95753479 C70.17022705 120.61753479 70.17022705 121.27753479 70.17022705 121.95753479 C68.4553833 123.61378479 68.4553833 123.61378479 66.23272705 125.45753479 C63.24977527 127.84680478 63.24977527 127.84680478 61.17022705 130.95753479 C60.51022705 130.95753479 59.85022705 130.95753479 59.17022705 130.95753479 C59.17022705 131.61753479 59.17022705 132.27753479 59.17022705 132.95753479 C55.16528383 132.41646508 53.35646062 130.49228714 50.5803833 127.66065979 C49.71348877 126.78409729 48.84659424 125.90753479 47.95343018 125.00440979 C47.05559814 124.08144104 46.15776611 123.15847229 45.23272705 122.20753479 C43.89177979 120.84628479 43.89177979 120.84628479 42.52374268 119.45753479 C40.84914429 117.75682908 39.17765018 116.05305704 37.51031494 114.3452301 C33.53974497 110.29388171 29.62466563 106.47419682 25.17022705 102.95753479 C24.17022705 101.95753479 23.17022705 100.95753479 22.17022705 99.95753479 C21.18022705 99.46253479 21.18022705 99.46253479 20.17022705 98.95753479 C19.77835205 98.23565979 19.38647705 97.51378479 18.98272705 96.77003479 C16.98495963 93.67005086 14.82927052 91.8761324 12.0022583 89.56690979 C9.57750803 87.43685199 7.61849643 85.02713102 5.56866455 82.54347229 C4.09250277 80.77745692 4.09250277 80.77745692 1.67022705 78.95753479 C-0.51300976 77.21094534 -2.05882846 75.58989652 -3.82977295 73.45753479 C-5.58151762 71.34920088 -7.10461238 69.73907268 -9.26727295 68.02003479 C-12.21575898 65.64686311 -14.47968856 62.98127168 -16.9352417 60.11378479 C-21.50273941 54.91531316 -26.38526398 50.22485263 -31.82977295 45.95753479 C-34.84446002 43.15317472 -37.26434117 40.79995824 -38.82977295 36.95753479 C-38.16977295 36.95753479 -37.50977295 36.95753479 -36.82977295 36.95753479 C-36.82977295 36.29753479 -36.82977295 35.63753479 -36.82977295 34.95753479 C-36.16977295 34.95753479 -35.50977295 34.95753479 -34.82977295 34.95753479 C-34.49977295 33.96753479 -34.16977295 32.97753479 -33.82977295 31.95753479 C-31.32977295 29.95753479 -31.32977295 29.95753479 -28.82977295 27.95753479 C-27.80808567 26.8098126 -26.80898747 25.64170118 -25.82977295 24.45753479 C-23.40039189 21.53236168 -20.8026719 19.33585395 -17.82977295 16.95753479 C-16.22340694 15.12396565 -14.6801667 13.25512695 -13.1618042 11.34815979 C-12.72223389 10.88925354 -12.28266357 10.43034729 -11.82977295 9.95753479 C-11.16977295 9.95753479 -10.50977295 9.95753479 -9.82977295 9.95753479 C-9.82977295 9.29753479 -9.82977295 8.63753479 -9.82977295 7.95753479 C-9.16977295 7.95753479 -8.50977295 7.95753479 -7.82977295 7.95753479 C-7.49977295 6.96753479 -7.16977295 5.97753479 -6.82977295 4.95753479 C-2.61000077 -0.06057267 -2.61000077 -0.06057267 0 0 Z " fill="#FDFDFD" transform="translate(135.82977294921875,185.04246520996094)"/>
<path d="M0 0 C3.13738154 1.39080525 5.25475281 3.01022204 7.66699219 5.43994141 C8.71762848 6.49080429 8.71762848 6.49080429 9.78948975 7.56289673 C10.53442688 8.31815643 11.27936401 9.07341614 12.046875 9.8515625 C12.81807678 10.62559418 13.58927856 11.39962585 14.3838501 12.19711304 C16.84396856 14.66841923 19.29703848 17.14659183 21.75 19.625 C23.41750894 21.30254052 25.08547232 22.97962945 26.75390625 24.65625 C30.8412237 28.76560919 34.92277696 32.88062647 39 37 C37.60919475 40.13738154 35.98977796 42.25475281 33.56005859 44.66699219 C32.85948334 45.36741638 32.15890808 46.06784058 31.43710327 46.78948975 C30.68184357 47.53442688 29.92658386 48.27936401 29.1484375 49.046875 C28.37440582 49.81807678 27.60037415 50.58927856 26.80288696 51.3838501 C24.33158077 53.84396856 21.85340817 56.29703848 19.375 58.75 C17.69745948 60.41750894 16.02037055 62.08547232 14.34375 63.75390625 C10.23439081 67.8412237 6.11937353 71.92277696 2 76 C-1.13738154 74.60919475 -3.25475281 72.98977796 -5.66699219 70.56005859 C-6.36741638 69.85948334 -7.06784058 69.15890808 -7.78948975 68.43710327 C-8.90689545 67.30421371 -8.90689545 67.30421371 -10.046875 66.1484375 C-10.81807678 65.37440582 -11.58927856 64.60037415 -12.3838501 63.80288696 C-14.84396856 61.33158077 -17.29703848 58.85340817 -19.75 56.375 C-21.41750894 54.69745948 -23.08547232 53.02037055 -24.75390625 51.34375 C-28.8412237 47.23439081 -32.92277696 43.11937353 -37 39 C-35.60919475 35.86261846 -33.98977796 33.74524719 -31.56005859 31.33300781 C-30.85948334 30.63258362 -30.15890808 29.93215942 -29.43710327 29.21051025 C-28.68184357 28.46557312 -27.92658386 27.72063599 -27.1484375 26.953125 C-26.37440582 26.18192322 -25.60037415 25.41072144 -24.80288696 24.6161499 C-22.33158077 22.15603144 -19.85340817 19.70296152 -17.375 17.25 C-15.69745948 15.58249106 -14.02037055 13.91452768 -12.34375 12.24609375 C-8.23439081 8.1587763 -4.11937353 4.07722304 0 0 Z " fill="#FDFDFD" transform="translate(364,185)"/>
</svg>
