<?xml version="1.0" encoding="UTF-8"?>
<svg version="1.1" xmlns="http://www.w3.org/2000/svg" width="500" height="500">
<path d="M0 0 C3.19816032 1.28990072 5.26986575 3.54729913 7.63995361 5.96949768 C8.43086899 6.75975594 8.43086899 6.75975594 9.23776245 7.565979 C10.97636356 9.30666777 12.70410136 11.05773618 14.4319458 12.80909729 C15.63626671 14.01901422 16.8412523 15.22826988 18.046875 16.43688965 C21.21653503 19.61799789 24.37708242 22.80801257 27.53582764 25.99995422 C30.76137878 29.25620657 33.99545104 32.50397116 37.2288208 35.75245667 C43.57053159 42.1263312 49.90264961 48.50964555 56.2288208 54.89894104 C59.9507501 53.34181661 62.32487556 51.05641162 65.1651001 48.22145081 C65.64200287 47.74805267 66.11890564 47.27465454 66.61026001 46.78691101 C68.17957655 45.22637139 69.74149414 43.6586602 71.30303955 42.09034729 C72.39322671 41.00150772 73.48371058 39.91296516 74.57447815 38.82470703 C76.85648821 36.54564257 79.13484888 34.26300717 81.41070557 31.97779846 C84.32944674 29.04764959 87.25709243 26.12658851 90.18751812 23.20813084 C92.43959927 20.96327191 94.68690102 18.71367715 96.93277931 16.46261406 C98.0106096 15.38344899 99.08992926 14.30576935 100.17075157 13.22960091 C101.67896609 11.72645899 103.18063135 10.21706623 104.6807251 8.70582581 C105.5369194 7.84804031 106.39311371 6.99025482 107.2752533 6.10647583 C109.42273925 3.97034267 109.42273925 3.97034267 110.2288208 0.89894104 C114.6838208 0.40394104 114.6838208 0.40394104 119.2288208 -0.10105896 C119.5588208 1.21894104 119.8888208 2.53894104 120.2288208 3.89894104 C121.20902455 4.91835294 122.20685089 5.9214046 123.2288208 6.89894104 C123.2288208 7.55894104 123.2288208 8.21894104 123.2288208 8.89894104 C124.07815186 9.26148987 124.07815186 9.26148987 124.94464111 9.63136292 C127.6810482 11.14989921 129.55951418 12.97045985 131.7756958 15.18019104 C132.62003174 16.02194885 133.46436768 16.86370667 134.33428955 17.73097229 C135.20698486 18.61140198 136.07968018 19.49183167 136.9788208 20.39894104 C137.86698486 21.27937073 138.75514893 22.15980042 139.67022705 23.06690979 C140.50940674 23.9086676 141.34858643 24.75042542 142.2131958 25.61769104 C143.36900146 26.77688049 143.36900146 26.77688049 144.54815674 27.95948792 C146.2288208 29.89894104 146.2288208 29.89894104 146.2288208 31.89894104 C146.79085205 32.13612854 147.3528833 32.37331604 147.9319458 32.61769104 C150.74776122 34.18841801 152.70837496 36.11365568 154.9788208 38.39894104 C155.77803955 39.19300354 156.5772583 39.98706604 157.4006958 40.80519104 C159.2288208 42.89894104 159.2288208 42.89894104 159.2288208 44.89894104 C159.8888208 44.89894104 160.5488208 44.89894104 161.2288208 44.89894104 C161.2288208 45.55894104 161.2288208 46.21894104 161.2288208 46.89894104 C162.07815186 47.26148987 162.07815186 47.26148987 162.94464111 47.63136292 C165.6810482 49.14989921 167.55951418 50.97045985 169.7756958 53.18019104 C170.62003174 54.02194885 171.46436768 54.86370667 172.33428955 55.73097229 C173.20698486 56.61140198 174.07968018 57.49183167 174.9788208 58.39894104 C175.86698486 59.27937073 176.75514893 60.15980042 177.67022705 61.06690979 C178.50940674 61.9086676 179.34858643 62.75042542 180.2131958 63.61769104 C180.98373291 64.39048401 181.75427002 65.16327698 182.54815674 65.95948792 C184.2288208 67.89894104 184.2288208 67.89894104 184.2288208 69.89894104 C184.81147705 70.15675354 185.3941333 70.41456604 185.9944458 70.68019104 C188.4091111 71.99728121 190.04622258 73.44982488 191.9788208 75.39894104 C192.59241455 76.00737854 193.2060083 76.61581604 193.8381958 77.24269104 C195.2288208 78.89894104 195.2288208 78.89894104 195.2288208 80.89894104 C195.8888208 80.89894104 196.5488208 80.89894104 197.2288208 80.89894104 C197.2288208 81.55894104 197.2288208 82.21894104 197.2288208 82.89894104 C197.8888208 82.89894104 198.5488208 82.89894104 199.2288208 82.89894104 C199.2288208 83.55894104 199.2288208 84.21894104 199.2288208 84.89894104 C199.7856958 85.14644104 200.3425708 85.39394104 200.9163208 85.64894104 C203.2288208 86.89894104 203.2288208 86.89894104 205.6663208 88.89894104 C208.14810217 90.83594113 210.27045862 91.88464543 213.2288208 92.89894104 C213.2288208 93.55894104 213.2288208 94.21894104 213.2288208 94.89894104 C212.5688208 94.89894104 211.9088208 94.89894104 211.2288208 94.89894104 C211.2288208 95.55894104 211.2288208 96.21894104 211.2288208 96.89894104 C211.8888208 96.89894104 212.5488208 96.89894104 213.2288208 96.89894104 C212.5413208 98.83644104 212.5413208 98.83644104 211.2288208 100.89894104 C210.0841333 101.11550354 210.0841333 101.11550354 208.9163208 101.33644104 C205.16040379 102.1225632 203.86987055 104.13284876 201.2288208 106.89894104 C200.20598083 107.91649245 199.17983371 108.93072848 198.1506958 109.94190979 C197.09338157 110.99006412 196.03609013 112.03824142 194.9788208 113.08644104 C194.43741455 113.61946838 193.8960083 114.15249573 193.3381958 114.70167542 C190.42124979 117.52401641 190.42124979 117.52401641 188.2288208 120.89894104 C187.5688208 120.89894104 186.9088208 120.89894104 186.2288208 120.89894104 C186.2288208 121.55894104 186.2288208 122.21894104 186.2288208 122.89894104 C184.8538208 124.52394104 184.8538208 124.52394104 183.2288208 125.89894104 C182.5688208 125.89894104 181.9088208 125.89894104 181.2288208 125.89894104 C181.2288208 126.55894104 181.2288208 127.21894104 181.2288208 127.89894104 C179.3538208 130.02394104 179.3538208 130.02394104 177.2288208 131.89894104 C176.5688208 131.89894104 175.9088208 131.89894104 175.2288208 131.89894104 C175.2288208 132.55894104 175.2288208 133.21894104 175.2288208 133.89894104 C173.2488208 134.88894104 173.2488208 134.88894104 171.2288208 135.89894104 C167.94691621 132.66637128 164.67155623 129.42736498 161.40216064 126.18214417 C160.28838957 125.07844806 159.17283248 123.97655131 158.05548096 122.8764801 C156.45230843 121.2974903 154.85561169 119.7121999 153.2600708 118.12550354 C152.75697388 117.63272919 152.25387695 117.13995483 151.73553467 116.63224792 C150.52807567 115.42518504 149.37299151 114.16615508 148.2288208 112.89894104 C148.2288208 112.23894104 148.2288208 111.57894104 148.2288208 110.89894104 C147.2388208 110.56894104 146.2488208 110.23894104 145.2288208 109.89894104 C145.2288208 109.23894104 145.2288208 108.57894104 145.2288208 107.89894104 C144.42686279 107.58594055 144.42686279 107.58594055 143.60870361 107.26661682 C140.29029174 105.35958529 137.81030775 102.7258324 135.1506958 100.01612854 C134.57925842 99.44186127 134.00782104 98.86759399 133.41906738 98.27592468 C131.60089135 96.44658294 129.78980589 94.61039911 127.9788208 92.77394104 C126.74490751 91.5299933 125.51053758 90.28649834 124.2756958 89.04347229 C121.25475337 86.00051737 118.24014988 82.9514085 115.2288208 79.89894104 C108.61809093 85.33252924 102.63667884 91.36340147 96.60772705 97.42237854 C95.49693911 98.53503489 94.3859277 99.6474682 93.27470398 100.75968933 C90.37093146 103.66725374 87.47017644 106.57781009 84.57006836 109.48902893 C81.60203817 112.46734533 78.63112418 115.4427821 75.66046143 118.41847229 C69.84710997 124.24250227 64.03694746 130.06970054 58.2288208 135.89894104 C54.90579894 134.33516605 52.66698073 132.68540953 50.2288208 129.89894104 C50.2288208 129.23894104 50.2288208 128.57894104 50.2288208 127.89894104 C49.6100708 127.65144104 48.9913208 127.40394104 48.3538208 127.14894104 C45.87813393 125.69265465 45.27757078 124.52081598 44.2288208 121.89894104 C43.5688208 121.89894104 42.9088208 121.89894104 42.2288208 121.89894104 C42.2288208 121.23894104 42.2288208 120.57894104 42.2288208 119.89894104 C40.7438208 119.40394104 40.7438208 119.40394104 39.2288208 118.89894104 C39.2288208 118.23894104 39.2288208 117.57894104 39.2288208 116.89894104 C38.5688208 116.89894104 37.9088208 116.89894104 37.2288208 116.89894104 C37.2288208 116.23894104 37.2288208 115.57894104 37.2288208 114.89894104 C35.2488208 113.90894104 35.2488208 113.90894104 33.2288208 112.89894104 C33.2288208 112.23894104 33.2288208 111.57894104 33.2288208 110.89894104 C32.5688208 110.89894104 31.9088208 110.89894104 31.2288208 110.89894104 C31.2288208 110.23894104 31.2288208 109.57894104 31.2288208 108.89894104 C29.7438208 108.40394104 29.7438208 108.40394104 28.2288208 107.89894104 C28.2288208 107.23894104 28.2288208 106.57894104 28.2288208 105.89894104 C27.6719458 105.67206604 27.1150708 105.44519104 26.5413208 105.21144104 C23.56722493 103.52344068 21.50873215 101.43217587 19.2288208 98.89894104 C19.2288208 98.23894104 19.2288208 97.57894104 19.2288208 96.89894104 C17.5788208 96.89894104 15.9288208 96.89894104 14.2288208 96.89894104 C13.8266333 95.69237854 13.8266333 95.69237854 13.4163208 94.46144104 C12.8285083 93.19300354 12.8285083 93.19300354 12.2288208 91.89894104 C11.2388208 91.56894104 10.2488208 91.23894104 9.2288208 90.89894104 C8.8988208 89.24894104 8.5688208 87.59894104 8.2288208 85.89894104 C7.5688208 85.89894104 6.9088208 85.89894104 6.2288208 85.89894104 C6.2288208 85.23894104 6.2288208 84.57894104 6.2288208 83.89894104 C5.2388208 83.56894104 4.2488208 83.23894104 3.2288208 82.89894104 C3.2288208 82.23894104 3.2288208 81.57894104 3.2288208 80.89894104 C2.3006958 80.52769104 2.3006958 80.52769104 1.3538208 80.14894104 C-1.12186607 78.69265465 -1.72242922 77.52081598 -2.7711792 74.89894104 C-3.4311792 74.89894104 -4.0911792 74.89894104 -4.7711792 74.89894104 C-4.7711792 74.23894104 -4.7711792 73.57894104 -4.7711792 72.89894104 C-5.4311792 72.89894104 -6.0911792 72.89894104 -6.7711792 72.89894104 C-7.91755214 71.81832563 -9.05282818 70.72448707 -10.14373779 69.58790588 C-12.123567 67.53323165 -14.15942875 65.54092699 -16.19696045 63.54347229 C-17.82598478 61.93291463 -19.45488804 60.32223451 -21.0836792 58.71144104 C-21.91963623 57.89224182 -22.75559326 57.0730426 -23.61688232 56.22901917 C-24.8012085 55.05436096 -24.8012085 55.05436096 -26.00946045 53.85597229 C-26.73173828 53.14416809 -27.45401611 52.43236389 -28.19818115 51.69898987 C-29.7711792 49.89894104 -29.7711792 49.89894104 -29.7711792 47.89894104 C-30.3280542 47.67206604 -30.8849292 47.44519104 -31.4586792 47.21144104 C-34.51273755 45.47805657 -36.5537225 43.62324498 -38.7711792 40.89894104 C-38.85515764 37.45582513 -38.03880956 36.21837083 -35.8336792 33.58644104 C-33.7711792 31.89894104 -33.7711792 31.89894104 -31.7711792 31.89894104 C-31.7711792 31.23894104 -31.7711792 30.57894104 -31.7711792 29.89894104 C-27.46885362 25.13149918 -27.46885362 25.13149918 -23.7711792 23.89894104 C-23.4411792 22.90894104 -23.1111792 21.91894104 -22.7711792 20.89894104 C-22.1111792 20.89894104 -21.4511792 20.89894104 -20.7711792 20.89894104 C-20.7711792 20.23894104 -20.7711792 19.57894104 -20.7711792 18.89894104 C-20.1111792 18.89894104 -19.4511792 18.89894104 -18.7711792 18.89894104 C-18.4411792 17.90894104 -18.1111792 16.91894104 -17.7711792 15.89894104 C-17.1111792 15.89894104 -16.4511792 15.89894104 -15.7711792 15.89894104 C-15.7711792 15.23894104 -15.7711792 14.57894104 -15.7711792 13.89894104 C-14.05633545 12.24269104 -14.05633545 12.24269104 -11.8336792 10.39894104 C-8.85072741 8.00967105 -8.85072741 8.00967105 -6.7711792 4.89894104 C-6.1111792 4.89894104 -5.4511792 4.89894104 -4.7711792 4.89894104 C-4.7711792 4.23894104 -4.7711792 3.57894104 -4.7711792 2.89894104 C-2.51741739 -0.1436374 -2.51741739 -0.1436374 0 0 Z " fill="#FFFFFF" transform="translate(135.77117919921875,184.10105895996094)"/>
<path d="M0 0 C1.296875 1.23364258 1.296875 1.23364258 2.75 3.08203125 C6.28550958 7.3069652 10.10981235 11.12218985 14.0625 14.94921875 C15.36608822 16.2217975 16.66947019 17.49458755 17.97265625 18.76757812 C19.99804906 20.74328776 22.02751876 22.71388594 24.06982422 24.67211914 C26.06033148 26.58420961 28.03138808 28.51462728 30 30.44921875 C30.92631226 31.32437386 30.92631226 31.32437386 31.87133789 32.21720886 C33.5625 33.8972168 33.5625 33.8972168 36 37 C35.98547226 40.43883639 35.38493656 41.53956942 33.1875 44.16796875 C32.465625 44.83441406 31.74375 45.50085938 31 46.1875 C28.10148878 48.7956543 28.10148878 48.7956543 26 52 C25.34 52 24.68 52 24 52 C24 52.66 24 53.32 24 54 C23.34 54 22.68 54 22 54 C22 54.66 22 55.32 22 56 C21.34 56 20.68 56 20 56 C20 56.66 20 57.32 20 58 C19.34 58 18.68 58 18 58 C18 58.66 18 59.32 18 60 C16.625 61.625 16.625 61.625 15 63 C14.34 63 13.68 63 13 63 C13 63.66 13 64.32 13 65 C11.42578125 66.515625 11.42578125 66.515625 9.3125 68.25 C6.64358281 70.49527954 4.355789 72.65838662 2.25 75.4375 C1.13625 76.7059375 1.13625 76.7059375 0 78 C-4 78 -4 78 -5.7109375 76.42578125 C-6.26007813 75.72839844 -6.80921875 75.03101563 -7.375 74.3125 C-9.51151092 71.71391713 -11.54617137 69.39881527 -14.1875 67.3125 C-16.90958595 65.07434044 -18.83663478 62.76015562 -21 60 C-21.99 59.34 -22.98 58.68 -24 58 C-24 57.34 -24 56.68 -24 56 C-24.66 56 -25.32 56 -26 56 C-27.33895632 54.33784732 -28.67130142 52.67036393 -30 51 C-30.9075 50.278125 -31.815 49.55625 -32.75 48.8125 C-33.4925 48.214375 -34.235 47.61625 -35 47 C-35 46.34 -35 45.68 -35 45 C-35.66 45 -36.32 45 -37 45 C-39.125 43.25 -39.125 43.25 -41 41 C-41 37 -41 37 -39.50447083 35.33287048 C-38.827285 34.79497391 -38.15009918 34.25707733 -37.45239258 33.70288086 C-33.29584346 30.26893683 -29.52588947 26.60866674 -25.76171875 22.75390625 C-24.43452579 21.40922781 -23.10704375 20.06483463 -21.77929688 18.72070312 C-19.71767299 16.62792119 -17.65851359 14.53286816 -15.60424805 12.43286133 C-13.60087943 10.38737631 -11.58835632 8.3512803 -9.57421875 6.31640625 C-8.65076912 5.36502525 -8.65076912 5.36502525 -7.70866394 4.39442444 C-3.34050047 0 -3.34050047 0 0 0 Z " fill="#FFFFFF" transform="translate(367,184)"/>
<path d="M0 0 C0.66 0 1.32 0 2 0 C2 1.32 2 2.64 2 4 C1.01 3.67 0.02 3.34 -1 3 C-0.67 2.01 -0.34 1.02 0 0 Z " fill="#FFFFFF" transform="translate(168,196)"/>
<path d="M0 0 C1.32 0 2.64 0 4 0 C4 0.66 4 1.32 4 2 C2.68 2 1.36 2 0 2 C0 1.34 0 0.68 0 0 Z " fill="#FFFFFF" transform="translate(246,180)"/>
<path d="M0 0 C0.99 0.33 1.98 0.66 3 1 C2.34 1.66 1.68 2.32 1 3 C0.67 2.01 0.34 1.02 0 0 Z " fill="#FFFFFF" transform="translate(249,279)"/>
<path d="M0 0 C0.99 0.495 0.99 0.495 2 1 C1.01 1.495 1.01 1.495 0 2 C0 1.34 0 0.68 0 0 Z " fill="#FFFFFF" transform="translate(153,197)"/>
<path d="" fill="#FFFFFF" transform="translate(0,0)"/>
<path d="" fill="#FFFFFF" transform="translate(0,0)"/>
<path d="" fill="#FFFFFF" transform="translate(0,0)"/>
<path d="M0 0 C2 1 2 1 2 1 Z " fill="#FFFFFF" transform="translate(169,215)"/>
<path d="" fill="#FFFFFF" transform="translate(0,0)"/>
<path d="" fill="#FFFFFF" transform="translate(0,0)"/>
<path d="" fill="#FFFFFF" transform="translate(0,0)"/>
<path d="" fill="#FFFFFF" transform="translate(0,0)"/>
<path d="" fill="#FFFFFF" transform="translate(0,0)"/>
<path d="" fill="#FFFFFF" transform="translate(0,0)"/>
<path d="" fill="#FFFFFF" transform="translate(0,0)"/>
<path d="" fill="#FFFFFF" transform="translate(0,0)"/>
<path d="" fill="#FFFFFF" transform="translate(0,0)"/>
</svg>
